<svg width="29" height="28" viewBox="0 0 29 28" fill="none" xmlns="http://www.w3.org/2000/svg">
<path fill-rule="evenodd" clip-rule="evenodd" d="M25.4201 22.275C26.868 20.3121 27.814 17.9597 28.0698 15.4052H0.0698242C0.325685 17.9597 1.27166 20.3121 2.71956 22.275H25.4201ZM22.6643 25.0855H5.47536C7.85247 26.9128 10.8335 28 14.0698 28C17.3061 28 20.2872 26.9128 22.6643 25.0855ZM2.71957 5.72494C1.27166 7.68789 0.32569 10.0403 0.0698242 12.5948H28.0698C27.814 10.0403 26.868 7.68789 25.4201 5.72494H2.71957ZM22.6643 2.91453C20.2872 1.08719 17.3061 0 14.0698 0C10.8336 0 7.85249 1.08719 5.47538 2.91453H22.6643Z" fill="#02277D"/>
</svg>
